<svg width="56" height="56" viewBox="0 0 56 56" fill="none" xmlns="http://www.w3.org/2000/svg">
<circle cx="28.0002" cy="28.0006" r="28" fill="#DED3F5"/>
<path d="M44.0005 30.4999C45.3812 30.4999 46.5005 29.3806 46.5005 27.9999C46.5005 26.6192 45.3812 25.4999 44.0005 25.4999V30.4999ZM10.2327 26.2321C9.25642 27.2084 9.25642 28.7913 10.2327 29.7676L26.1426 45.6775C27.1189 46.6539 28.7018 46.6539 29.6782 45.6775C30.6545 44.7012 30.6545 43.1183 29.6782 42.142L15.536 27.9999L29.6782 13.8577C30.6545 12.8814 30.6545 11.2985 29.6782 10.3222C28.7018 9.3459 27.1189 9.3459 26.1426 10.3222L10.2327 26.2321ZM44.0005 25.4999L12.0005 25.4999V30.4999L44.0005 30.4999V25.4999Z" fill="#8C52FF"/>
</svg>
