<svg width="36" height="32" viewBox="0 0 36 32" fill="none" xmlns="http://www.w3.org/2000/svg">
<rect x="0.5" y="0.5" width="35" height="31" rx="7.5" fill="white" stroke="#8C52FF"/>
<path d="M17.5582 15.772C18.7575 15.7931 19.9167 15.3412 20.7836 14.5145C21.2088 14.1319 21.5478 13.6637 21.7781 13.1407C22.0085 12.6178 22.1249 12.0521 22.1198 11.4809C22.1248 10.9097 22.0083 10.344 21.7779 9.82106C21.5475 9.29813 21.2084 8.82989 20.7832 8.44728C19.9048 7.63869 18.7534 7.1897 17.558 7.1897C16.3627 7.1897 15.2112 7.63869 14.3328 8.44728C13.9076 8.82988 13.5686 9.29811 13.3382 9.82104C13.1078 10.344 12.9912 10.9097 12.9963 11.4809C12.9912 12.0521 13.1077 12.6178 13.3381 13.1408C13.5685 13.6637 13.9076 14.132 14.3328 14.5145C15.1999 15.3411 16.359 15.793 17.5582 15.772Z" fill="#8C52FF"/>
<path d="M25.3451 21.0171C25.316 20.6394 25.2659 20.2635 25.1952 19.8913C25.1251 19.5079 25.029 19.1298 24.9077 18.7594C24.7846 18.3915 24.6227 18.0376 24.4249 17.7036C24.2282 17.365 23.9829 17.0569 23.6966 16.7893C23.3917 16.5136 23.0368 16.2987 22.6509 16.1561C22.2239 15.9977 21.7715 15.9188 21.316 15.9232C21.0513 15.9502 20.8001 16.0529 20.5925 16.2189C20.3757 16.3552 20.1212 16.5128 19.8385 16.6889C19.5313 16.8656 19.2037 17.0046 18.863 17.1029C18.087 17.3507 17.2528 17.3507 16.4769 17.1029C16.1364 17.0047 15.8092 16.8656 15.5023 16.6889C15.2217 16.518 14.968 16.3586 14.7478 16.2189C14.5404 16.0529 14.2893 15.9502 14.0247 15.9232C13.5692 15.9188 13.1167 15.9979 12.6898 16.1565C12.3039 16.2991 11.949 16.514 11.6441 16.7897C11.3578 17.0573 11.1125 17.3654 10.9158 17.7041C10.7181 18.0381 10.5563 18.392 10.433 18.7599C10.3119 19.1303 10.216 19.5084 10.146 19.8917C10.0751 20.2641 10.0251 20.6401 9.99608 21.018C9.97166 21.3598 9.95923 21.7127 9.95923 22.0704C9.94127 22.4869 10.0134 22.9023 10.1707 23.2886C10.328 23.6748 10.5668 24.0228 10.8709 24.3088C11.5183 24.8752 12.3597 25.171 13.2202 25.1347H22.1214C22.9817 25.171 23.823 24.8752 24.4703 24.3088C24.7747 24.0226 25.0137 23.6744 25.1711 23.2878C25.3285 22.9013 25.4005 22.4855 25.3824 22.0686C25.3824 21.7106 25.3695 21.3568 25.3451 21.0171Z" fill="#8C52FF"/>
</svg>
