<svg width="72" height="64" viewBox="0 0 72 64" fill="none" xmlns="http://www.w3.org/2000/svg">
<rect x="0.5" y="0.5" width="71" height="63" rx="7.5" fill="white" stroke="#8C52FF"/>
<path d="M35.7662 31.2143C38.2536 31.2567 40.6578 30.3503 42.4559 28.6921C43.3378 27.9246 44.0408 26.9854 44.5186 25.9365C44.9963 24.8876 45.2378 23.7529 45.2272 22.6073C45.2376 21.4616 44.9959 20.3269 44.518 19.278C44.0401 18.2291 43.337 17.2899 42.455 16.5225C40.6332 14.9006 38.245 14 35.7658 14C33.2866 14 30.8983 14.9006 29.0765 16.5225C28.1945 17.2899 27.4913 18.229 27.0134 19.2779C26.5356 20.3268 26.2938 21.4616 26.3043 22.6073C26.2938 23.7529 26.5355 24.8877 27.0134 25.9366C27.4912 26.9855 28.1944 27.9247 29.0765 28.6921C30.8748 30.35 33.2789 31.2564 35.7662 31.2143Z" fill="#8C52FF"/>
<path d="M51.917 41.735C51.8566 40.9773 51.7528 40.2234 51.606 39.4768C51.4607 38.7079 51.2615 37.9494 51.0098 37.2065C50.7544 36.4686 50.4188 35.7587 50.0085 35.0889C49.6006 34.4096 49.0917 33.7917 48.498 33.2548C47.8656 32.702 47.1294 32.2709 46.3291 31.9848C45.4435 31.6672 44.5051 31.5089 43.5604 31.5177C43.0114 31.5719 42.4903 31.7778 42.0597 32.1107C41.6101 32.3841 41.0823 32.7004 40.4959 33.0534C39.8587 33.408 39.1794 33.6868 38.4727 33.8839C36.8632 34.3809 35.1331 34.3809 33.5236 33.8839C32.8175 33.6869 32.1388 33.408 31.5022 33.0534C30.9202 32.7106 30.3942 32.391 29.9375 32.1107C29.5073 31.7778 28.9864 31.5718 28.4377 31.5177C27.4929 31.5089 26.5544 31.6675 25.669 31.9856C24.8687 32.2716 24.1325 32.7027 23.5002 33.2557C22.9064 33.7925 22.3975 34.4104 21.9897 35.0897C21.5795 35.7596 21.2438 36.4695 20.9883 37.2074C20.737 37.9503 20.5382 38.7088 20.393 39.4776C20.246 40.2245 20.1422 40.9787 20.082 41.7367C20.0313 42.4223 20.0056 43.1302 20.0056 43.8476C19.9683 44.683 20.1179 45.5163 20.4442 46.291C20.7704 47.0658 21.2657 47.7637 21.8964 48.3374C23.2393 49.4735 24.9844 50.0668 26.769 49.9941H45.2308C47.0152 50.0668 48.7601 49.4735 50.1026 48.3374C50.7339 47.7634 51.2297 47.0649 51.5561 46.2896C51.8825 45.5142 52.032 44.6802 51.9943 43.8441C51.9943 43.126 51.9677 42.4163 51.917 41.735Z" fill="#8C52FF"/>
</svg>
