<svg width="80" height="80" viewBox="0 0 80 80" fill="none" xmlns="http://www.w3.org/2000/svg">
<path d="M40 80C62.0914 80 80 62.0914 80 40C80 17.9086 62.0914 0 40 0C17.9086 0 0 17.9086 0 40C0 62.0914 17.9086 80 40 80Z" fill="#1F0045"/>
<path d="M20.7797 50.3897L31.8676 39.3069V59.3282C31.8678 59.6494 31.8046 59.9675 31.6816 60.2642C31.5586 60.5609 31.3783 60.8305 31.151 61.0574C30.9237 61.2843 30.6539 61.4641 30.3569 61.5866C30.06 61.709 29.7419 61.7716 29.4207 61.7709H23.2266C22.9054 61.7716 22.5873 61.709 22.2903 61.5866C21.9934 61.4641 21.7236 61.2843 21.4963 61.0574C21.269 60.8305 21.0887 60.5609 20.9657 60.2642C20.8428 59.9675 20.7795 59.6494 20.7797 59.3282V50.3897Z" fill="white"/>
<path d="M47.3896 38.0161L58.4766 26.5598V59.328C58.4738 59.9758 58.2149 60.596 57.7565 61.0536C57.2981 61.5112 56.6773 61.7691 56.0296 61.7708H49.8355C49.1874 61.7705 48.566 61.5131 48.1074 61.0551C47.6489 60.5972 47.3907 59.9761 47.3896 59.328V38.0161Z" fill="white"/>
<path d="M34.0844 35.1572L40.1164 41.1947C40.576 41.6517 41.1979 41.9083 41.846 41.9083C42.4941 41.9083 43.1159 41.6517 43.5756 41.1947L45.1756 39.5947V59.3281C45.1727 59.9758 44.9139 60.596 44.4555 61.0536C43.9971 61.5112 43.3763 61.7691 42.7286 61.7708H36.5345C35.8868 61.7691 35.2661 61.5112 34.8077 61.0536C34.3493 60.596 34.0904 59.9758 34.0875 59.3281L34.0844 35.1572Z" fill="white"/>
<path d="M60.6934 22.9333L41.8453 42.8802L34.0842 35.7229L19.1562 50.6771" stroke="#1B0142" stroke-width="3" stroke-linecap="round" stroke-linejoin="round"/>
<path fill-rule="evenodd" clip-rule="evenodd" d="M62.8916 19.2001C62.8916 18.7758 62.723 18.3689 62.423 18.0688C62.1229 17.7688 61.716 17.6001 61.2916 17.6001H51.6084C51.1841 17.6001 50.7771 17.7688 50.477 18.0688C50.177 18.3689 50.0084 18.7758 50.0084 19.2001C50.0084 19.6244 50.177 20.0313 50.477 20.3313C50.7771 20.6314 51.1841 20.8001 51.6084 20.8001H57.8281L41.9444 37.5683L35.0986 31.0402C34.7953 30.7513 34.3908 30.5926 33.972 30.5985C33.5532 30.6045 33.1534 30.7745 32.8585 31.072L19.1316 45.0027C18.9707 45.1492 18.8414 45.327 18.7516 45.5251C18.6617 45.7232 18.6133 45.9378 18.6091 46.1553C18.605 46.3728 18.6452 46.5888 18.7273 46.7902C18.8095 46.9916 18.932 47.1741 19.0871 47.3267C19.2423 47.4792 19.4268 47.5984 19.6296 47.6772C19.8324 47.7559 20.0492 47.7929 20.2666 47.785C20.484 47.7771 20.6976 47.7251 20.8941 47.6319C21.0907 47.5387 21.2663 47.4061 21.41 47.2428L34.0329 34.4428L40.9012 40.9923C41.0526 41.1391 41.2317 41.2544 41.4281 41.3313C41.6245 41.4083 41.8343 41.4452 42.0452 41.4402C42.2561 41.4352 42.4638 41.3883 42.6564 41.3022C42.849 41.2161 43.0225 41.0925 43.1668 40.9386L59.7001 23.4881V28.8855C59.7001 29.3099 59.8687 29.7167 60.1688 30.0168C60.4688 30.3168 60.8758 30.4855 61.3001 30.4855C61.7245 30.4855 62.1315 30.3168 62.4315 30.0168C62.7316 29.7167 62.9001 29.3099 62.9001 28.8855L62.8916 19.2001Z" fill="white"/>
</svg>
