<svg width="37" height="43" viewBox="0 0 37 43" fill="none" xmlns="http://www.w3.org/2000/svg">
<path d="M17.7443 20.0863C20.5437 20.1358 23.2495 19.0782 25.2733 17.1433C26.2658 16.2478 27.0571 15.1519 27.5947 13.928C28.1324 12.7041 28.4042 11.38 28.3923 10.0433C28.404 8.7065 28.1319 7.38244 27.5941 6.15854C27.0563 4.93465 26.2649 3.83878 25.2723 2.9433C23.2219 1.05084 20.534 0 17.7438 0C14.9535 0 12.2657 1.05084 10.2153 2.9433C9.22261 3.83874 8.43122 4.9346 7.89339 6.1585C7.35556 7.38241 7.08354 8.70649 7.09528 10.0433C7.08347 11.3801 7.35547 12.7042 7.89331 13.9281C8.43114 15.1521 9.22256 16.2479 10.2153 17.1433C12.2392 19.0779 14.9449 20.1355 17.7443 20.0863Z" fill="#1F0045"/>
<path d="M35.9213 32.3624C35.8533 31.4782 35.7365 30.5986 35.5713 29.7274C35.4077 28.8302 35.1835 27.9452 34.9003 27.0783C34.6128 26.2172 34.2351 25.3889 33.7733 24.6073C33.3143 23.8148 32.7415 23.0938 32.0733 22.4673C31.3615 21.8222 30.533 21.3192 29.6323 20.9853C28.6356 20.6148 27.5795 20.4301 26.5163 20.4403C25.8984 20.5036 25.3119 20.7439 24.8273 21.1323C24.3213 21.4513 23.7273 21.8203 23.0673 22.2323C22.3501 22.646 21.5856 22.9714 20.7903 23.2013C18.9789 23.7813 17.0317 23.7813 15.2203 23.2013C14.4256 22.9715 13.6617 22.6461 12.9453 22.2323C12.2903 21.8323 11.6983 21.4593 11.1843 21.1323C10.7001 20.7438 10.1139 20.5035 9.49628 20.4403C8.43295 20.4301 7.37676 20.6151 6.38028 20.9864C5.47949 21.32 4.65091 21.8231 3.93928 22.4683C3.27104 23.0947 2.69827 23.8157 2.23928 24.6083C1.77766 25.39 1.3999 26.2183 1.11228 27.0793C0.829516 27.9462 0.605673 28.8313 0.44228 29.7284C0.276859 30.5999 0.160012 31.4799 0.0922804 32.3643C0.0352804 33.1643 0.00628035 33.9904 0.00628035 34.8274C-0.0356429 35.8022 0.132702 36.7745 0.499884 37.6785C0.867065 38.5825 1.42448 39.3969 2.13428 40.0663C3.64566 41.392 5.60971 42.0843 7.61828 41.9994H28.3963C30.4045 42.0842 32.3683 41.3919 33.8793 40.0663C34.5898 39.3965 35.1477 38.5815 35.5151 37.6768C35.8824 36.7721 36.0507 35.7989 36.0083 34.8234C36.0083 33.9854 35.9783 33.1574 35.9213 32.3624Z" fill="#1F0045"/>
</svg>
