<svg width="50" height="43" viewBox="0 0 50 43" fill="none" xmlns="http://www.w3.org/2000/svg">
<path d="M30.173 7.233C31.3432 7.96087 32.3321 8.94592 33.0646 10.1133C33.797 11.2807 34.2537 12.5997 34.4 13.97C35.8307 14.6356 37.4383 14.8207 38.9828 14.4976C40.5274 14.1745 41.926 13.3605 42.9699 12.1772C44.0139 10.9939 44.6471 9.50476 44.7751 7.93199C44.9032 6.35923 44.5191 4.78724 43.6803 3.45067C42.8415 2.11411 41.5929 1.08467 40.121 0.516009C38.6491 -0.0526482 37.0327 -0.130018 35.5132 0.29545C33.9936 0.720917 32.6525 1.6264 31.6898 2.87674C30.7272 4.12707 30.1948 5.6552 30.172 7.233H30.173ZM25.373 22.22C26.8199 22.217 28.2335 21.7853 29.4351 20.9792C30.6368 20.1732 31.5725 19.0291 32.1242 17.6915C32.6758 16.3539 32.8186 14.8827 32.5345 13.464C32.2504 12.0452 31.5522 10.7425 30.528 9.72041C29.5038 8.69833 28.1997 8.00275 26.7804 7.72156C25.361 7.44036 23.8902 7.58618 22.5537 8.14057C21.2172 8.69497 20.075 9.63307 19.2714 10.8363C18.4679 12.0396 18.039 13.4541 18.039 14.901C18.0409 16.8435 18.8141 18.7057 20.1886 20.0782C21.5632 21.4506 23.4265 22.2211 25.369 22.22H25.373ZM28.484 22.72H22.257C19.7699 22.7208 17.3846 23.708 15.6245 25.4652C13.8644 27.2223 12.873 29.6059 12.868 32.093V39.693L12.887 39.812L13.411 39.976C17.5377 41.3034 21.8422 41.9963 26.177 42.031C33.077 42.031 37.077 40.067 37.324 39.942L37.814 39.695H37.866V32.095C37.8628 29.6073 36.8725 27.2226 35.1125 25.4644C33.3525 23.7063 30.9667 22.7185 28.479 22.718L28.484 22.72ZM40.616 15.164H34.437C34.3739 17.5445 33.3712 19.8034 31.648 21.447C33.9463 22.1293 35.9631 23.5348 37.3988 25.4547C38.8344 27.3747 39.6124 29.7066 39.617 32.104V34.445C43.0024 34.4206 46.3485 33.7171 49.457 32.376L49.947 32.128H50V24.528C49.9934 22.042 49.0013 19.6601 47.2413 17.9044C45.4813 16.1487 43.097 15.1625 40.611 15.162L40.616 15.164ZM12.506 14.664C13.8868 14.6641 15.2392 14.2722 16.406 13.534C16.7615 11.2427 17.9823 9.17497 19.817 7.757C19.824 7.62 19.838 7.484 19.838 7.346C19.8408 5.89553 19.4133 4.47683 18.6096 3.26938C17.8059 2.06193 16.6621 1.11999 15.3229 0.562721C13.9838 0.00545609 12.5094 -0.142091 11.0864 0.138747C9.66338 0.419585 8.35562 1.11619 7.32859 2.14043C6.30155 3.16466 5.60138 4.47051 5.31666 5.89277C5.03194 7.31502 5.17546 8.78977 5.72907 10.1304C6.28268 11.4711 7.22149 12.6174 8.42674 13.4244C9.632 14.2314 11.0495 14.6628 12.5 14.664H12.506ZM19.092 21.445C17.3766 19.81 16.3737 17.5656 16.3 15.197C16.071 15.18 15.844 15.162 15.611 15.162H9.389C6.90216 15.1625 4.51706 16.1494 2.75691 17.9062C0.996765 19.663 0.00529617 22.0462 0 24.533V32.133L0.019 32.25L0.543 32.415C3.9736 33.5044 7.52469 34.1697 11.117 34.396V32.102C11.122 29.7046 11.9002 27.3727 13.336 25.4528C14.7719 23.5329 16.7887 22.1274 19.087 21.445H19.092Z" fill="#1F0045"/>
</svg>
