<svg width="80" height="80" viewBox="0 0 80 80" fill="none" xmlns="http://www.w3.org/2000/svg">
<path d="M40 0C47.9112 0 55.6448 2.34596 62.2228 6.74121C68.8008 11.1365 73.9277 17.3836 76.9552 24.6927C79.9827 32.0017 80.7748 40.0444 79.2314 47.8036C77.688 55.5628 73.8784 62.6902 68.2843 68.2843C62.6902 73.8784 55.5628 77.688 47.8036 79.2314C40.0444 80.7748 32.0017 79.9827 24.6927 76.9552C17.3836 73.9277 11.1365 68.8008 6.74121 62.2228C2.34596 55.6448 0 47.9112 0 40C0 29.3913 4.21427 19.2172 11.7157 11.7157C19.2172 4.21427 29.3913 0 40 0Z" fill="#1F0045"/>
<path d="M31.7036 40.1171H43.5554M31.7036 34.1973H43.5554H31.7036Z" stroke="white" stroke-width="3" stroke-linecap="round"/>
<path d="M59.8402 16.6505C59.8402 16.6185 59.8327 16.597 59.8295 16.565C59.8263 16.533 59.8199 16.5012 59.8135 16.4692C59.8071 16.4372 59.7986 16.4054 59.7911 16.3734C59.7855 16.3445 59.778 16.3159 59.7687 16.288C59.7602 16.256 59.7484 16.2241 59.7388 16.1921C59.7292 16.1601 59.7186 16.1387 59.7068 16.1067C59.6951 16.0747 59.6823 16.053 59.6695 16.0317C59.6567 16.0104 59.6428 15.9679 59.6279 15.9359C59.6115 15.9121 59.5968 15.8874 59.5842 15.8614C59.5652 15.8341 59.5481 15.8055 59.533 15.776C59.5159 15.7546 59.4956 15.7228 59.4764 15.7015C59.4565 15.6785 59.439 15.6531 59.4242 15.6265C59.3879 15.5838 59.3506 15.541 59.3111 15.4984C59.3111 15.4984 59.3036 15.4986 59.2994 15.488C59.2951 15.4773 59.2898 15.4877 59.2855 15.477C59.246 15.4343 59.2044 15.4025 59.1618 15.3598C59.1394 15.3492 59.117 15.3278 59.0935 15.3171L59.0135 15.2531C58.9879 15.2317 58.9602 15.2213 58.9335 15.1999C58.9068 15.1786 58.8823 15.1679 58.8567 15.1572C58.8269 15.1474 58.7989 15.133 58.7735 15.1145L58.6892 15.0827L58.6103 15.0505L58.5154 15.0187C58.4914 15.0066 58.4653 14.9993 58.4386 14.9973L58.3319 14.965C58.3027 14.9666 58.2735 14.9633 58.2455 14.9546C58.2146 14.9546 58.1826 14.9437 58.1495 14.9437C58.1028 14.935 58.0552 14.9316 58.0076 14.9333H48.5709C48.0719 14.9352 47.594 15.1346 47.2418 15.488C46.8888 15.8484 46.6911 16.3329 46.6911 16.8374C46.6911 17.3419 46.8888 17.8259 47.2418 18.1864C47.594 18.5397 48.0719 18.7392 48.5709 18.7411H53.4402L47.7015 24.565C44.8631 22.0783 41.2277 20.6908 37.4543 20.6536C33.6808 20.6164 30.0188 21.9322 27.1319 24.3624C25.2042 25.9804 23.6805 28.0258 22.6818 30.3359C21.6792 32.654 21.2265 35.1726 21.359 37.6947C21.4915 40.2169 22.2056 42.6741 23.4455 44.8744C24.6767 47.066 26.4066 48.937 28.4951 50.3359C30.57 51.7317 32.9459 52.6162 35.4284 52.9171V57.7921H29.7922C29.2932 57.7937 28.8152 57.9932 28.4631 58.3468C28.1101 58.7072 27.9125 59.1913 27.9125 59.6958C27.9125 60.2002 28.1101 60.6848 28.4631 61.0452C28.8152 61.3989 29.2932 61.5984 29.7922 61.5999H35.4284V66.3572C35.4278 66.8634 35.6254 67.3497 35.9789 67.7119C36.1526 67.8876 36.3595 68.0271 36.5876 68.1223C36.8156 68.2175 37.0603 68.2666 37.3074 68.2666C37.5545 68.2666 37.7991 68.2175 38.0272 68.1223C38.2552 68.0271 38.4621 67.8876 38.6359 67.7119C38.9899 67.35 39.1876 66.8635 39.1863 66.3572V61.5999H44.8237C45.3223 61.5982 45.7999 61.3987 46.1516 61.0452C46.5046 60.6848 46.7023 60.2002 46.7023 59.6958C46.7023 59.1913 46.5046 58.7072 46.1516 58.3468C45.7999 57.9933 45.3223 57.7938 44.8237 57.7921H39.1863V52.9171C41.956 52.5851 44.5883 51.5253 46.8151 49.8452C49.0581 48.1625 50.823 45.9235 51.9351 43.3494C53.0534 40.7663 53.4859 37.9383 53.1908 35.139C52.8958 32.3397 51.8831 29.664 50.2508 27.3708L56.0994 21.44V26.3572C56.0987 26.8634 56.2963 27.3497 56.6498 27.7119C56.8236 27.8876 57.0305 28.0271 57.2585 28.1223C57.4866 28.2175 57.7312 28.2666 57.9783 28.2666C58.2254 28.2666 58.4701 28.2175 58.6981 28.1223C58.9262 28.0271 59.1331 27.8876 59.3069 27.7119C59.6608 27.35 59.8585 26.8635 59.8572 26.3572V16.8426C59.8572 16.7786 59.854 16.7145 59.8476 16.6505H59.8402ZM37.3026 49.2161C34.8838 49.2145 32.5207 48.4899 30.5165 47.1359C28.5034 45.7658 26.9388 43.8329 26.0183 41.5786C25.0941 39.3115 24.8527 36.8237 25.3239 34.4213C25.7914 32.0269 26.9537 29.8233 28.6658 28.0853C29.9359 26.7929 31.4798 25.8016 33.1837 25.1848C34.8876 24.5681 36.7082 24.3417 38.5113 24.5218C40.3144 24.7019 42.0542 25.2843 43.6024 26.226C45.1506 27.1676 46.4679 28.4442 47.4572 29.9624C49.0283 32.3487 49.7341 35.2017 49.457 38.0452C49.1798 40.8888 47.9364 43.5516 45.934 45.5895C44.8081 46.7367 43.465 47.6481 41.983 48.2708C40.5011 48.8934 38.91 49.2148 37.3026 49.2161Z" fill="white"/>
</svg>
