<svg width="32" height="32" viewBox="0 0 32 32" fill="none" xmlns="http://www.w3.org/2000/svg">
<path d="M31.9999 16.3556C31.9999 15.04 31.891 14.08 31.6552 13.0845H16.3264V19.0222H25.3241C25.1427 20.4978 24.1632 22.72 21.9862 24.2133L21.9557 24.4121L26.8024 28.0916L27.1382 28.1245C30.222 25.3333 31.9999 21.2266 31.9999 16.3556Z" fill="#4285F4"/>
<path d="M16.3265 32C20.7346 32 24.4353 30.5777 27.1383 28.1244L21.9864 24.2132C20.6077 25.1555 18.7573 25.8132 16.3265 25.8132C12.0091 25.8132 8.34473 23.0222 7.03848 19.1644L6.84701 19.1804L1.80736 23.0026L1.74146 23.1821C4.42623 28.4088 9.94099 32 16.3265 32Z" fill="#34A853"/>
<path d="M7.03848 19.1646C6.69381 18.169 6.49434 17.1023 6.49434 16.0001C6.49434 14.8978 6.69381 13.8312 7.02035 12.8356L7.01122 12.6236L1.90841 8.73999L1.74145 8.81782C0.634928 10.9867 0 13.4223 0 16.0001C0 18.5779 0.634928 21.0134 1.74145 23.1823L7.03848 19.1646Z" fill="#FBBC05"/>
<path d="M16.3265 6.18663C19.3922 6.18663 21.4602 7.4844 22.6394 8.56892L27.2471 4.16C24.4173 1.58223 20.7346 0 16.3265 0C9.94099 0 4.42623 3.59108 1.74146 8.81771L7.02035 12.8355C8.34473 8.97777 12.0091 6.18663 16.3265 6.18663Z" fill="#EB4335"/>
</svg>
