<svg width="244" height="66" viewBox="0 0 244 66" fill="none" xmlns="http://www.w3.org/2000/svg">
<path d="M26.1946 52.2454H30.3743V65.8471H32.3657V52.2454H36.5235V50.6297H26.1946V52.2454ZM50.0475 65.8471H52.0389V50.6297H50.0475V57.3105H42.2789V50.6297H40.2875V65.8471H42.2789V58.948H50.0475V65.8471ZM64.9282 50.6079H56.7219V65.8471H64.9282V64.2096H58.7133V58.9698H64.2717V57.3323H58.7133V52.2454H64.9282V50.6079ZM90.9913 58.2275C90.9913 53.6645 87.6432 50.4551 83.3322 50.4551C79.043 50.4551 75.673 53.6645 75.673 58.2275C75.673 62.7905 79.043 65.9999 83.3322 65.9999C87.6432 65.9999 90.9913 62.7905 90.9913 58.2275ZM77.7081 58.2275C77.7081 54.4941 80.1153 52.1799 83.3322 52.1799C86.549 52.1799 88.9562 54.4941 88.9562 58.2275C88.9562 61.939 86.549 64.2751 83.3322 64.2751C80.1153 64.2751 77.7081 61.939 77.7081 58.2275ZM104.931 50.6079V62.7032L96.9218 50.6079H94.9304V65.8471H96.9218V53.73L104.931 65.8471H106.922V50.6079H104.931ZM119.834 50.6079H111.627V65.8471H119.834V64.2096H113.619V58.9698H119.177V57.3323H113.619V52.2454H119.834V50.6079ZM131.322 65.8471H133.314V58.9916H138.697V57.376H133.314V52.2454H139.945V50.6297H131.322V65.8471ZM158.239 58.2275C158.239 53.6645 154.891 50.4551 150.58 50.4551C146.291 50.4551 142.921 53.6645 142.921 58.2275C142.921 62.7905 146.291 65.9999 150.58 65.9999C154.891 65.9999 158.239 62.7905 158.239 58.2275ZM144.956 58.2275C144.956 54.4941 147.363 52.1799 150.58 52.1799C153.797 52.1799 156.204 54.4941 156.204 58.2275C156.204 61.939 153.797 64.2751 150.58 64.2751C147.363 64.2751 144.956 61.939 144.956 58.2275ZM170.341 55.1054C170.341 56.8084 169.356 58.031 167.102 58.031H164.169V52.2672H167.102C169.378 52.2672 170.341 53.3806 170.341 55.1054ZM162.178 50.6297V65.8471H164.169V59.6248H166.577L170.209 65.8471H172.595L168.765 59.4719C171.325 58.9043 172.398 57.0485 172.398 55.1054C172.398 52.6165 170.691 50.6297 167.102 50.6297H162.178ZM194.193 65.8471H196.294L190.802 50.7171H188.504L182.989 65.8471H185.09L186.315 62.463H192.968L194.193 65.8471ZM192.399 60.8474H186.884L189.642 53.1623L192.399 60.8474ZM200.014 50.6297V65.8471H207.345V64.2315H202.006V50.6297H200.014ZM210.781 50.6297V65.8471H218.112V64.2315H212.773V50.6297H210.781Z" fill="white"/>
<path d="M7.5279 29.605V0.48032H0V29.605H7.5279ZM35.6262 30.129C42.8915 30.129 46.6992 26.0681 48.5812 22.3129L42.1037 19.2564C41.5528 20.5136 40.6469 21.5836 39.4966 22.3357C38.3464 23.0879 37.0015 23.4896 35.6262 23.4919C31.0744 23.4919 27.7044 19.824 27.7044 15.0645C27.7044 10.305 31.0744 6.63712 35.6262 6.63712C37.0015 6.63941 38.3464 7.04115 39.4966 7.79329C40.6469 8.54543 41.5528 9.61542 42.1037 10.8726L48.5812 7.81607C46.6554 3.97354 42.8915 0 35.6262 0C26.8728 0 20.0452 6.06947 20.0452 15.0645C20.0452 24.0159 26.8728 30.129 35.6262 30.129ZM59.0852 15.0645C59.0852 23.9285 65.7815 30.129 74.71 30.129C83.6384 30.129 90.2909 23.9285 90.2909 15.0645C90.2909 6.20046 83.6384 0 74.71 0C65.7815 0 59.0852 6.20046 59.0852 15.0645ZM82.6318 15.0645C82.6318 19.7803 79.5243 23.4919 74.71 23.4919C69.8518 23.4919 66.7444 19.7803 66.7444 15.0645C66.7444 10.305 69.8518 6.63712 74.71 6.63712C79.5243 6.63712 82.6318 10.305 82.6318 15.0645ZM129.987 29.605V0.48032H122.416V17.2478L110.599 0.48032H102.852V29.605H110.38V12.0079L122.722 29.605H129.987ZM151.521 29.605V0.48032H143.993V29.605H151.521ZM179.619 30.129C186.884 30.129 190.692 26.0681 192.574 22.3129L186.097 19.2564C185.546 20.5136 184.64 21.5836 183.489 22.3357C182.339 23.0879 180.994 23.4896 179.619 23.4919C175.067 23.4919 171.697 19.824 171.697 15.0645C171.697 10.305 175.067 6.63712 179.619 6.63712C180.994 6.63941 182.339 7.04115 183.489 7.79329C184.64 8.54543 185.546 9.61542 186.097 10.8726L192.574 7.81607C190.648 3.97354 186.884 0 179.619 0C170.866 0 164.038 6.06947 164.038 15.0645C164.038 24.0159 170.866 30.129 179.619 30.129ZM223.824 29.605V23.0552H212.094V0.48032H204.566V29.605H223.824ZM244 29.605V0.48032H236.472V29.605H244Z" fill="white"/>
</svg>
