<svg width="166" height="45" viewBox="0 0 166 45" fill="none" xmlns="http://www.w3.org/2000/svg">
<path d="M17.8203 35.6218H20.6639V44.8957H22.0187V35.6218H24.8474V34.5202H17.8203V35.6218ZM34.0481 44.8957H35.4029V34.5202H34.0481V39.0753H28.7629V34.5202H27.4081V44.8957H28.7629V40.1918H34.0481V44.8957ZM44.1719 34.5053H38.5889V44.8957H44.1719V43.7793H39.9437V40.2066H43.7253V39.0902H39.9437V35.6218H44.1719V34.5053ZM61.9034 39.7005C61.9034 36.5894 59.6256 34.4011 56.6926 34.4011C53.7746 34.4011 51.4819 36.5894 51.4819 39.7005C51.4819 42.8117 53.7746 44.9999 56.6926 44.9999C59.6256 44.9999 61.9034 42.8117 61.9034 39.7005ZM52.8665 39.7005C52.8665 37.155 54.5041 35.5771 56.6926 35.5771C58.8812 35.5771 60.5188 37.155 60.5188 39.7005C60.5188 42.2311 58.8812 43.8239 56.6926 43.8239C54.5041 43.8239 52.8665 42.2311 52.8665 39.7005ZM71.387 34.5053V42.7521L65.938 34.5053H64.5832V44.8957H65.938V36.634L71.387 44.8957H72.7418V34.5053H71.387ZM81.5257 34.5053H75.9427V44.8957H81.5257V43.7793H77.2975V40.2066H81.079V39.0902H77.2975V35.6218H81.5257V34.5053ZM89.3418 44.8957H90.6966V40.2215H94.3591V39.12H90.6966V35.6218H95.2077V34.5202H89.3418V44.8957ZM107.654 39.7005C107.654 36.5894 105.376 34.4011 102.443 34.4011C99.5252 34.4011 97.2324 36.5894 97.2324 39.7005C97.2324 42.8117 99.5252 44.9999 102.443 44.9999C105.376 44.9999 107.654 42.8117 107.654 39.7005ZM98.617 39.7005C98.617 37.155 100.255 35.5771 102.443 35.5771C104.632 35.5771 106.269 37.155 106.269 39.7005C106.269 42.2311 104.632 43.8239 102.443 43.8239C100.255 43.8239 98.617 42.2311 98.617 39.7005ZM115.887 37.5718C115.887 38.7329 115.217 39.5666 113.684 39.5666H111.689V35.6367H113.684C115.232 35.6367 115.887 36.3958 115.887 37.5718ZM110.334 34.5202V44.8957H111.689V40.6532H113.326L115.798 44.8957H117.42L114.815 40.549C116.557 40.162 117.286 38.8967 117.286 37.5718C117.286 35.8748 116.125 34.5202 113.684 34.5202H110.334ZM132.115 44.8957H133.544L129.807 34.5798H128.244L124.492 44.8957H125.921L126.755 42.5884H131.281L132.115 44.8957ZM130.894 41.4868H127.142L129.018 36.247L130.894 41.4868ZM136.075 34.5202V44.8957H141.062V43.7942H137.43V34.5202H136.075ZM143.4 34.5202V44.8957H148.387V43.7942H144.755V34.5202H143.4Z" fill="white"/>
<path d="M5.12144 20.1853V0.327493H0V20.1853H5.12144ZM24.2375 20.5426C29.1803 20.5426 31.7708 17.7738 33.0511 15.2134L28.6443 13.1294C28.2695 13.9866 27.6532 14.7162 26.8707 15.229C26.0881 15.7418 25.1731 16.0157 24.2375 16.0173C21.1408 16.0173 18.8481 13.5164 18.8481 10.2713C18.8481 7.02617 21.1408 4.52533 24.2375 4.52533C25.1731 4.52689 26.0881 4.80081 26.8707 5.31363C27.6532 5.82646 28.2695 6.556 28.6443 7.4132L33.0511 5.32917C31.741 2.70924 29.1803 0 24.2375 0C18.2823 0 13.6373 4.13829 13.6373 10.2713C13.6373 16.3745 18.2823 20.5426 24.2375 20.5426ZM40.1973 10.2713C40.1973 16.315 44.753 20.5426 50.8273 20.5426C56.9015 20.5426 61.4274 16.315 61.4274 10.2713C61.4274 4.22761 56.9015 0 50.8273 0C44.753 0 40.1973 4.22761 40.1973 10.2713ZM56.2167 10.2713C56.2167 13.4867 54.1026 16.0173 50.8273 16.0173C47.5221 16.0173 45.4081 13.4867 45.4081 10.2713C45.4081 7.02617 47.5221 4.52533 50.8273 4.52533C54.1026 4.52533 56.2167 7.02617 56.2167 10.2713ZM88.4341 20.1853V0.327493H83.2829V11.7599L75.2434 0.327493H69.9731V20.1853H75.0945V8.18727L83.4913 20.1853H88.4341ZM103.084 20.1853V0.327493H97.9623V20.1853H103.084ZM122.2 20.5426C127.143 20.5426 129.733 17.7738 131.013 15.2134L126.607 13.1294C126.232 13.9866 125.616 14.7162 124.833 15.229C124.05 15.7418 123.135 16.0157 122.2 16.0173C119.103 16.0173 116.81 13.5164 116.81 10.2713C116.81 7.02617 119.103 4.52533 122.2 4.52533C123.135 4.52689 124.05 4.80081 124.833 5.31363C125.616 5.82646 126.232 6.556 126.607 7.4132L131.013 5.32917C129.703 2.70924 127.143 0 122.2 0C116.245 0 111.6 4.13829 111.6 10.2713C111.6 16.3745 116.245 20.5426 122.2 20.5426ZM152.273 20.1853V15.7196H144.293V0.327493H139.172V20.1853H152.273ZM166 20.1853V0.327493H160.879V20.1853H166Z" fill="white"/>
</svg>
