<svg width="36" height="32" viewBox="0 0 36 32" fill="none" xmlns="http://www.w3.org/2000/svg">
<rect width="36" height="32" rx="8" fill="#8C52FF"/>
<path d="M19.9658 9.77968C20.5074 10.1349 20.9652 10.6156 21.3042 11.1853C21.6432 11.755 21.8546 12.3987 21.9223 13.0675C22.5845 13.3923 23.3286 13.4826 24.0435 13.325C24.7584 13.1673 25.4058 12.7701 25.8889 12.1926C26.3721 11.6151 26.6652 10.8883 26.7245 10.1208C26.7837 9.35326 26.606 8.58609 26.2177 7.93382C25.8295 7.28155 25.2516 6.77916 24.5703 6.50164C23.889 6.22412 23.1408 6.18637 22.4375 6.394C21.7342 6.60164 21.1134 7.04354 20.6679 7.65373C20.2223 8.26392 19.9759 9.00968 19.9653 9.77968H19.9658ZM17.7441 17.0937C18.4138 17.0922 19.0681 16.8815 19.6243 16.4881C20.1804 16.0948 20.6136 15.5364 20.8689 14.8836C21.1242 14.2309 21.1903 13.5129 21.0588 12.8205C20.9273 12.1281 20.6042 11.4924 20.1301 10.9936C19.6561 10.4948 19.0524 10.1553 18.3955 10.0181C17.7385 9.88088 17.0577 9.95204 16.4391 10.2226C15.8205 10.4932 15.2919 10.951 14.9199 11.5382C14.548 12.1254 14.3495 12.8157 14.3495 13.5218C14.3503 14.4698 14.7082 15.3786 15.3444 16.0484C15.9807 16.7182 16.8431 17.0942 17.7422 17.0937H17.7441ZM19.184 17.3377H16.3018C15.1506 17.3381 14.0466 17.8199 13.2319 18.6774C12.4172 19.5349 11.9584 20.6981 11.956 21.9119V25.6209L11.9648 25.6789L12.2074 25.759C14.1175 26.4068 16.1098 26.7449 18.1162 26.7619C21.3099 26.7619 23.1614 25.8034 23.2757 25.7424L23.5025 25.6218H23.5266V21.9129C23.5251 20.6988 23.0667 19.535 22.2521 18.677C21.4374 17.819 20.3332 17.337 19.1817 17.3367L19.184 17.3377ZM24.7994 13.6502H21.9394C21.9102 14.8119 21.4461 15.9143 20.6485 16.7164C21.7123 17.0494 22.6458 17.7353 23.3103 18.6723C23.9748 19.6093 24.3349 20.7473 24.337 21.9173V23.0597C25.904 23.0478 27.4527 22.7045 28.8915 22.05L29.1183 21.929H29.1429V18.22C29.1398 17.0068 28.6806 15.8444 27.866 14.9876C27.0514 14.1307 25.9477 13.6495 24.7971 13.6492L24.7994 13.6502ZM11.7885 13.4062C12.4276 13.4062 13.0536 13.215 13.5936 12.8547C13.7582 11.7365 14.3233 10.7274 15.1724 10.0354C15.1757 9.96854 15.1822 9.90217 15.1822 9.83482C15.1834 9.12696 14.9856 8.43461 14.6136 7.84534C14.2416 7.25608 13.7122 6.79639 13.0923 6.52444C12.4725 6.25248 11.7901 6.18047 11.1314 6.31753C10.4728 6.45458 9.86746 6.79454 9.39209 7.29439C8.91672 7.79424 8.59264 8.43153 8.46085 9.12562C8.32907 9.81971 8.3955 10.5394 8.65174 11.1937C8.90798 11.848 9.34252 12.4074 9.90038 12.8012C10.4582 13.1951 11.1144 13.4056 11.7857 13.4062H11.7885ZM14.8369 16.7154C14.0429 15.9175 13.5787 14.8222 13.5446 13.6663C13.4386 13.658 13.3335 13.6492 13.2257 13.6492H10.3458C9.19471 13.6495 8.09075 14.1311 7.27606 14.9884C6.46136 15.8458 6.00245 17.0088 6 18.2225V21.9314L6.00879 21.9885L6.25133 22.069C7.83921 22.6007 9.48286 22.9254 11.1456 23.0358V21.9163C11.1479 20.7463 11.5081 19.6083 12.1727 18.6713C12.8373 17.7344 13.7708 17.0484 14.8346 16.7154H14.8369Z" fill="white"/>
</svg>
