<svg width="72" height="64" viewBox="0 0 72 64" fill="none" xmlns="http://www.w3.org/2000/svg">
<rect width="72" height="64" rx="8" fill="#8C52FF"/>
<path d="M40.9661 18.8835C42.0895 19.5762 43.0389 20.5136 43.742 21.6246C44.4452 22.7356 44.8836 23.9908 45.024 25.2949C46.3975 25.9284 47.9408 26.1045 49.4235 25.7971C50.9063 25.4896 52.249 24.7149 53.2511 23.5888C54.2533 22.4627 54.8612 21.0455 54.9841 19.5487C55.107 18.0519 54.7383 16.5559 53.9331 15.2839C53.1278 14.012 51.9292 13.0323 50.5162 12.4911C49.1031 11.9499 47.5514 11.8763 46.0926 12.2812C44.6339 12.6861 43.3464 13.5478 42.4222 14.7377C41.4981 15.9276 40.987 17.3819 40.9651 18.8835H40.9661ZM36.3581 33.1463C37.7471 33.1435 39.1042 32.7326 40.2577 31.9655C41.4113 31.1984 42.3096 30.1096 42.8392 28.8366C43.3688 27.5636 43.5059 26.1636 43.2332 24.8134C42.9604 23.4632 42.2901 22.2234 41.3069 21.2507C40.3237 20.278 39.0717 19.616 37.7091 19.3484C36.3466 19.0808 34.9346 19.2196 33.6515 19.7472C32.3685 20.2748 31.272 21.1676 30.5006 22.3127C29.7292 23.4578 29.3174 24.804 29.3174 26.181C29.3192 28.0296 30.0615 29.8018 31.3811 31.1079C32.7007 32.4141 34.4895 33.1473 36.3542 33.1463H36.3581ZM39.3446 33.6221H33.3667C30.9791 33.6229 28.6893 34.5624 26.9995 36.2347C25.3098 37.9069 24.3581 40.1753 24.3533 42.5422V49.775L24.3715 49.8882L24.8746 50.0443C28.8362 51.3076 32.9685 51.967 37.1299 52C43.7539 52 47.5939 50.1309 47.831 50.0119L48.3014 49.7769H48.3514V42.5441C48.3483 40.1766 47.3976 37.9071 45.708 36.234C44.0184 34.5608 41.728 33.6207 39.3398 33.6202L39.3446 33.6221ZM50.9914 26.4313H45.0595C44.9989 28.6968 44.0363 30.8464 42.3821 32.4106C44.5884 33.0599 46.5245 34.3976 47.9028 36.2247C49.2811 38.0519 50.0279 40.2712 50.0323 42.5527V44.7806C53.2823 44.7574 56.4945 44.0878 59.4787 42.8115L59.9491 42.5755H60V35.3428C59.9936 32.9769 59.0413 30.7101 57.3517 29.0393C55.6621 27.3684 53.3731 26.4298 50.9866 26.4293L50.9914 26.4313ZM24.0058 25.9554C25.3313 25.9555 26.6296 25.5826 27.7498 24.88C28.091 22.6994 29.263 20.7316 31.0243 19.3822C31.031 19.2518 31.0445 19.1224 31.0445 18.991C31.0471 17.6107 30.6367 16.2605 29.8652 15.1114C29.0936 13.9623 27.9956 13.0659 26.71 12.5355C25.4244 12.0052 24.0091 11.8648 22.6429 12.132C21.2768 12.3993 20.0214 13.0623 19.0354 14.037C18.0495 15.0117 17.3773 16.2545 17.104 17.608C16.8307 18.9615 16.9684 20.365 17.4999 21.6409C18.0314 22.9168 18.9326 24.0078 20.0897 24.7758C21.2467 25.5437 22.6075 25.9543 24 25.9554H24.0058ZM30.3283 32.4087C28.6816 30.8528 27.7187 28.7168 27.648 26.4627C27.4282 26.4465 27.2102 26.4293 26.9866 26.4293H21.0134C18.6261 26.4298 16.3364 27.3691 14.6466 29.0409C12.9569 30.7128 12.0051 32.9809 12 35.3475V42.5803L12.0182 42.6916L12.5213 42.8487C15.8147 43.8855 19.2237 44.5186 22.6723 44.7339V42.5508C22.6771 40.2692 23.4242 38.05 24.8026 36.2229C26.181 34.3957 28.1172 33.0581 30.3235 32.4087H30.3283Z" fill="white"/>
</svg>
