<svg width="113" height="14" viewBox="0 0 113 14" fill="none" xmlns="http://www.w3.org/2000/svg">
<path d="M3.4864 13.7496V0.228847H0V13.7496H3.4864ZM16.499 13.9932C17.7454 14.0475 18.98 13.7319 20.0476 13.0863C21.1152 12.4407 21.968 11.4938 22.499 10.3647L19.499 8.94606C19.2439 9.52975 18.8243 10.0265 18.2916 10.3757C17.7589 10.7248 17.136 10.9113 16.499 10.9123C15.9981 10.9068 15.5034 10.8 15.0448 10.5983C14.5861 10.3966 14.173 10.1043 13.8303 9.73882C13.4876 9.37337 13.2223 8.94236 13.0504 8.47172C12.8785 8.00109 12.8036 7.50054 12.8301 7.0002C12.8036 6.49985 12.8785 5.99931 13.0504 5.52867C13.2223 5.05804 13.4876 4.62703 13.8303 4.26157C14.173 3.89612 14.5861 3.60377 15.0448 3.4021C15.5034 3.20044 15.9981 3.09363 16.499 3.0881C17.136 3.08909 17.7589 3.27556 18.2916 3.62472C18.8243 3.97389 19.2439 4.47065 19.499 5.05434L22.499 3.63567C21.9723 2.50328 21.1204 1.55341 20.0518 0.907168C18.9832 0.260929 17.7464 -0.0523951 16.499 0.00715286C12.4455 0.00715286 9.28346 2.82725 9.28346 7.0002C9.28267 11.1551 12.4455 13.9932 16.4998 13.9932H16.499ZM27.3631 7.0002C27.3631 11.1152 30.4641 13.9932 34.5991 13.9932C38.734 13.9932 41.8147 11.1152 41.8147 7.0002C41.8147 2.88521 38.734 0.00636993 34.5999 0.00636993C30.4657 0.00636993 27.3639 2.88443 27.3639 6.99941L27.3631 7.0002ZM38.268 7.0002C38.3034 7.50255 38.2346 8.00681 38.066 8.48133C37.8973 8.95586 37.6325 9.3904 37.288 9.75772C36.9435 10.125 36.5268 10.4172 36.0641 10.6159C35.6014 10.8146 35.1026 10.9155 34.5991 10.9123C34.094 10.9177 33.5933 10.8185 33.1284 10.6209C32.6636 10.4232 32.2447 10.1315 31.8981 9.76399C31.5515 9.39649 31.2848 8.9612 31.1147 8.48554C30.9446 8.00988 30.8749 7.50415 30.9098 7.0002C30.8732 6.49587 30.9418 5.98944 31.1113 5.51304C31.2807 5.03664 31.5474 4.60067 31.8943 4.23282C32.2412 3.86496 32.6608 3.57324 33.1264 3.37618C33.592 3.17912 34.0935 3.08102 34.5991 3.0881C36.8291 3.08732 38.268 4.79034 38.268 6.99941V7.0002ZM60.1998 13.7504V0.22963H56.6931V8.01387L51.2203 0.22963H47.6329V13.7504H51.1192V5.58075L56.8372 13.7496L60.1998 13.7504ZM70.1718 13.7504V0.22963H66.6854V13.7504H70.1718ZM83.1844 13.994C84.4308 14.0482 85.6654 13.7327 86.733 13.0871C87.8005 12.4415 88.6534 11.4946 89.1843 10.3655L86.1844 8.94684C85.9293 9.53053 85.5097 10.0273 84.977 10.3765C84.4442 10.7256 83.8214 10.9121 83.1844 10.9131C82.6834 10.9075 82.1888 10.8007 81.7301 10.5991C81.2715 10.3974 80.8584 10.1051 80.5157 9.73961C80.173 9.37415 79.9077 8.94314 79.7358 8.47251C79.5639 8.00187 79.489 7.50133 79.5155 7.00098C79.489 6.50064 79.5639 6.00009 79.7358 5.52946C79.9077 5.05882 80.173 4.62781 80.5157 4.26236C80.8584 3.8969 81.2715 3.60455 81.7301 3.40289C82.1888 3.20123 82.6834 3.09442 83.1844 3.08889C83.8214 3.08987 84.4442 3.27634 84.977 3.62551C85.5097 3.97467 85.9293 4.47143 86.1844 5.05512L89.1843 3.63646C88.6577 2.50406 87.8058 1.55419 86.7372 0.907951C85.6686 0.261712 84.4318 -0.0516061 83.1844 0.00794176C79.1309 0.00794176 75.9688 2.82803 75.9688 7.00098C75.968 11.1551 79.1301 13.9932 83.1836 13.9932L83.1844 13.994ZM103.656 13.7504V10.7094H98.2242V0.22963H94.7386V13.7504H103.656ZM113 13.7504V0.22963H109.514V13.7504H113Z" fill="#1F0045"/>
</svg>
