<svg width="20" height="24" viewBox="0 0 20 24" fill="none" xmlns="http://www.w3.org/2000/svg">
<path d="M20 9.71056C19.8123 9.73069 19.6154 9.73688 19.4231 9.74385C18.3808 9.74034 17.3562 9.47283 16.4436 8.96597C15.531 8.45911 14.7598 7.72922 14.2011 6.84353V16.709C14.2107 17.657 14.0346 18.5977 13.6829 19.4772C13.3312 20.3568 12.8108 21.1579 12.1514 21.835C11.4921 22.5121 10.7067 23.0518 9.84005 23.4232C8.97344 23.7947 8.04262 23.9907 7.10075 24C6.15888 23.9907 5.22807 23.7947 4.36146 23.4232C3.49485 23.0518 2.70941 22.5121 2.05005 21.835C1.39069 21.1579 0.870311 20.3568 0.518621 19.4772C0.166931 18.5977 -0.00917432 17.657 0.00036803 16.709C-0.00917432 15.7609 0.166931 14.8202 0.518621 13.9407C0.870311 13.0611 1.39069 12.26 2.05005 11.5829C2.70941 10.9058 3.49485 10.3661 4.36146 9.99466C5.22807 9.62319 6.15888 9.42721 7.10075 9.4179C7.24998 9.4179 7.39227 9.43107 7.5415 9.43803V13.0305C7.39582 13.0048 7.24856 12.9893 7.10075 12.9841C6.129 12.9945 5.20109 13.3927 4.5208 14.0912C3.84051 14.7898 3.46344 15.7316 3.47246 16.7097C3.46344 17.6879 3.84051 18.6297 4.5208 19.3282C5.20109 20.0268 6.129 20.425 7.10075 20.4354C8.08222 20.4406 9.02658 20.0583 9.73122 19.3706C10.4359 18.6829 10.8446 17.7446 10.8697 16.757L10.9021 0H14.2511C14.3896 1.48084 15.0412 2.86544 16.0918 3.91136C17.1424 4.95728 18.5251 5.59786 19.9977 5.72089V9.71212" fill="white"/>
</svg>
