<svg width="29" height="23" viewBox="0 0 29 23" fill="none" xmlns="http://www.w3.org/2000/svg">
<path d="M28.8768 2.76215C27.9376 3.15133 26.9516 3.42205 25.9425 3.56779C26.4128 3.49113 27.1095 2.67093 27.3861 2.33289C27.82 1.83019 28.1501 1.24992 28.358 0.624258C28.3846 0.579032 28.405 0.51387 28.3509 0.474776C28.326 0.463246 28.2983 0.458382 28.2708 0.46067C28.2432 0.462959 28.2168 0.472317 28.1942 0.487806C27.0948 1.05374 25.9278 1.48375 24.7199 1.76793C24.6778 1.7806 24.6329 1.78188 24.5902 1.77162C24.5474 1.76136 24.5083 1.73996 24.4769 1.70969C24.3843 1.60211 24.2829 1.50212 24.1736 1.41073C23.6692 0.992945 23.0998 0.656546 22.487 0.414223C21.6656 0.0958339 20.7826 -0.0418241 19.9007 0.0110203C19.0456 0.0650763 18.2115 0.292996 17.4515 0.680214C16.6925 1.06245 16.0201 1.59069 15.4749 2.23323C14.912 2.89748 14.5087 3.67677 14.2946 4.5137C14.109 5.30306 14.0882 6.12094 14.2335 6.91835C14.2539 7.0548 14.2405 7.06783 14.112 7.05479C9.33589 6.37257 5.37646 4.7222 2.16549 1.19993C2.02363 1.04662 1.94996 1.04662 1.83475 1.21296C0.431864 3.24047 1.11294 6.50212 2.86695 8.10726C3.1011 8.32722 3.34645 8.53549 3.60208 8.73124C2.79871 8.67256 2.01482 8.46058 1.29474 8.10726C1.15288 8.02294 1.08548 8.06817 1.07216 8.22454C1.06261 8.44405 1.07627 8.66394 1.11292 8.88071C1.25699 9.92289 1.68316 10.9085 2.34731 11.7356C3.01146 12.5626 3.88947 13.2011 4.89053 13.585C5.13779 13.688 5.39552 13.7651 5.6594 13.8149C4.91517 13.9594 4.15152 13.9814 3.39988 13.8801C3.23765 13.8479 3.17022 13.9322 3.23763 14.0817C4.22905 16.6941 6.38121 17.4737 7.98631 17.9144C8.20262 17.9535 8.41814 17.9535 8.63367 17.9988C8.62034 18.0179 8.60702 18.0179 8.59291 18.0378C8.05997 18.8243 6.2119 19.4023 5.34823 19.6951C3.76974 20.2383 2.09132 20.4473 0.424036 20.3084C0.160701 20.2693 0.100353 20.2762 0.0321677 20.3084C-0.0422873 20.3536 0.0250911 20.4126 0.1066 20.477C0.443607 20.6916 0.787654 20.8802 1.13172 21.0619C2.1786 21.6 3.28237 22.0249 4.42342 22.329C10.3461 23.9011 17.011 22.7452 21.4564 18.4962C24.944 15.1564 26.1714 10.5487 26.1714 5.93565C26.1714 5.75397 26.3939 5.65585 26.5225 5.5585C27.407 4.89952 28.1887 4.11814 28.8431 3.23894C28.9474 3.11467 29.003 2.95813 28.9999 2.79741V2.77135C28.9983 2.69086 28.9912 2.71003 28.8768 2.76215Z" fill="white"/>
</svg>
