<svg width="32" height="23" viewBox="0 0 32 23" fill="none" xmlns="http://www.w3.org/2000/svg">
<path d="M31.9981 7.20859C32.0073 6.2711 31.8329 5.34097 31.4849 4.47132C31.1369 3.60167 30.6221 2.80953 29.9699 2.14014C29.3178 1.47075 28.541 0.937215 27.684 0.570005C26.8269 0.202795 25.9064 0.00911967 24.975 0H7.02344C6.09204 0.00911967 5.17155 0.202795 4.31452 0.570005C3.45749 0.937215 2.68069 1.47075 2.02853 2.14014C1.37636 2.80953 0.861584 3.60167 0.513585 4.47132C0.165585 5.34097 -0.00880719 6.2711 0.000342223 7.20859V15.7914C-0.00880719 16.7289 0.165585 17.659 0.513585 18.5287C0.861584 19.3983 1.37636 20.1905 2.02853 20.8599C2.68069 21.5292 3.45749 22.0628 4.31452 22.43C5.17155 22.7972 6.09204 22.9909 7.02344 23H24.9766C25.908 22.9909 26.8285 22.7972 27.6855 22.43C28.5425 22.0628 29.3193 21.5292 29.9715 20.8599C30.6236 20.1905 31.1384 19.3983 31.4864 18.5287C31.8344 17.659 32.0088 16.7289 31.9997 15.7914L31.9981 7.20859ZM21.4323 12.1442L13.3768 16.2393C13.0652 16.4126 11.9879 16.1841 11.9879 15.8098V7.40951C11.9879 7.03451 13.0652 6.80597 13.3852 6.98926L21.0932 11.2945C21.4231 11.477 21.7622 11.9617 21.4323 12.1442Z" fill="white"/>
</svg>
