<svg width="25" height="24" viewBox="0 0 25 24" fill="none" xmlns="http://www.w3.org/2000/svg">
<path d="M0.328613 23.8898L2.04712 17.503C1.0747 15.7599 0.564566 13.7971 0.565204 11.8012C0.571531 8.66925 1.82026 5.66776 4.0374 3.45532C6.25453 1.24287 9.25897 0.000197685 12.3914 0C15.5238 0.000197685 18.5282 1.24287 20.7454 3.45532C22.9625 5.66776 24.2112 8.66925 24.2176 11.8012C24.2112 14.9331 22.9625 17.9346 20.7454 20.147C18.5282 22.3595 15.5238 23.6021 12.3914 23.6023C10.4263 23.6005 8.49263 23.1084 6.76572 22.1707L0.328613 23.8898ZM7.08091 19.7783L7.48706 20.021C8.96653 20.9023 10.6562 21.3686 12.3783 21.3709C14.9173 21.3697 17.3522 20.362 19.1493 18.5687C20.9463 16.7754 21.9589 14.3428 21.965 11.8043C21.9589 9.2657 20.9463 6.83313 19.1493 5.03982C17.3522 3.24651 14.9173 2.23878 12.3783 2.23756C9.8393 2.23878 7.40438 3.24651 5.60732 5.03982C3.81025 6.83313 2.79768 9.2657 2.79156 11.8043C2.79565 13.5552 3.27997 15.2715 4.19182 16.7664L4.44228 17.1717L3.48129 20.7361L7.08091 19.7783Z" fill="white"/>
<path fill-rule="evenodd" clip-rule="evenodd" d="M16.7747 13.4454C16.5406 13.2585 16.2669 13.1273 15.9745 13.0618C15.6821 12.9962 15.3786 12.998 15.087 13.0671C14.6478 13.2497 14.3649 13.9316 14.0806 14.2822C14.02 14.366 13.9304 14.4242 13.8292 14.4454C13.728 14.4667 13.6225 14.4494 13.5334 14.397C11.9266 13.7677 10.5798 12.6136 9.71182 11.1223C9.63754 11.0282 9.60241 10.909 9.61375 10.7896C9.62509 10.6702 9.68205 10.5598 9.77273 10.4813C10.0988 10.1728 10.338 9.78407 10.4663 9.35401C10.4932 8.89033 10.3862 8.42869 10.158 8.02412C9.97828 7.44492 9.63618 6.92937 9.17236 6.53856C8.93375 6.42828 8.66818 6.38994 8.40812 6.42826C8.14806 6.46658 7.90482 6.57989 7.70818 6.75431C7.37118 7.04522 7.10346 7.40778 6.92465 7.81545C6.74585 8.22313 6.66049 8.66562 6.67475 9.11054C6.67587 9.36336 6.70769 9.6151 6.76953 9.86025C6.92632 10.4436 7.16752 11.0009 7.48546 11.5145C7.71665 11.906 7.96477 12.285 8.23526 12.6557C9.11603 13.8589 10.2182 14.8833 11.4828 15.6738C12.1188 16.0722 12.7986 16.3961 13.5087 16.6392C14.2463 16.9735 15.0607 17.1018 15.8653 17.0106C16.3244 16.9405 16.7594 16.7593 17.1325 16.4828C17.5056 16.2063 17.8055 15.8429 18.0062 15.4241C18.1196 15.1702 18.1547 14.8883 18.1071 14.6143C17.9831 14.0464 17.2271 13.7159 16.7747 13.4454Z" fill="white"/>
</svg>
