<svg width="25" height="24" viewBox="0 0 25 24" fill="none" xmlns="http://www.w3.org/2000/svg">
<path d="M18.9986 4.26343C18.8131 4.26323 18.6293 4.29962 18.4578 4.37054C18.2864 4.44146 18.1305 4.5455 17.9993 4.67671C17.8681 4.80792 17.7641 4.96372 17.6932 5.13519C17.6222 5.30667 17.5859 5.49044 17.5861 5.676C17.5859 5.86156 17.6222 6.04534 17.6932 6.21681C17.7641 6.38829 17.8681 6.54409 17.9993 6.6753C18.1305 6.80651 18.2864 6.91055 18.4578 6.98147C18.6293 7.05238 18.8131 7.08878 18.9986 7.08858C19.1842 7.08878 19.3679 7.05238 19.5394 6.98147C19.7109 6.91055 19.8667 6.80651 19.9979 6.6753C20.1291 6.54409 20.2332 6.38829 20.3041 6.21681C20.375 6.04534 20.4114 5.86156 20.4112 5.676C20.4114 5.49044 20.375 5.30667 20.3041 5.13519C20.2332 4.96372 20.1291 4.80792 19.9979 4.67671C19.8667 4.5455 19.7109 4.44146 19.5394 4.37054C19.3679 4.29962 19.1842 4.26323 18.9986 4.26343Z" fill="white"/>
<path d="M12.7795 5.99951C11.2034 6.00175 9.69247 6.62887 8.57796 7.74338C7.46346 8.85788 6.83635 10.3688 6.83411 11.945C6.83635 13.5211 7.46346 15.0321 8.57796 16.1466C9.69247 17.2611 11.2034 17.8882 12.7795 17.8904C14.3557 17.8882 15.8667 17.2611 16.9812 16.1466C18.0957 15.0321 18.7228 13.5211 18.725 11.945C18.7228 10.3688 18.0957 8.85788 16.9812 7.74338C15.8667 6.62887 14.3557 6.00175 12.7795 5.99951ZM12.7795 15.7604C11.7696 15.76 10.8012 15.3586 10.087 14.6445C9.37288 13.9303 8.97145 12.9619 8.97104 11.9519C8.97104 10.9417 9.37227 9.97284 10.0865 9.25836C10.8006 8.54389 11.7693 8.14229 12.7795 8.14188C13.7895 8.14229 14.758 8.54367 15.4721 9.25782C16.1863 9.97196 16.5876 10.9404 16.588 11.9504C16.588 12.9606 16.1868 13.9295 15.4726 14.6439C14.7585 15.3584 13.7898 15.76 12.7795 15.7604Z" fill="white"/>
<path d="M17.456 23.8932H7.91781C6.01559 23.8905 4.19208 23.1337 2.84701 21.7886C1.50193 20.4435 0.745082 18.62 0.742432 16.7178V7.17882C0.745082 5.2766 1.50193 3.45305 2.84701 2.10798C4.19208 0.762902 6.01559 0.0060683 7.91781 0.00341797H17.456C19.3582 0.0060683 21.1818 0.762902 22.5269 2.10798C23.8719 3.45305 24.6288 5.2766 24.6314 7.17882V16.717C24.628 18.619 23.8709 20.4422 22.526 21.7872C21.1811 23.1322 19.358 23.8895 17.456 23.8932ZM7.91781 2.25137C6.61135 2.2526 5.35875 2.77213 4.43494 3.69594C3.51113 4.61975 2.9916 5.87236 2.99037 7.17882V16.717C2.9916 18.0235 3.51113 19.2761 4.43494 20.1999C5.35875 21.1237 6.61135 21.6432 7.91781 21.6445H17.456C18.7625 21.6432 20.0151 21.1237 20.9389 20.1999C21.8627 19.2761 22.3823 18.0235 22.3835 16.717V7.17882C22.3823 5.87236 21.8627 4.61975 20.9389 3.69594C20.0151 2.77213 18.7625 2.2526 17.456 2.25137H7.91781Z" fill="white"/>
</svg>
