<svg width="18" height="24" viewBox="0 0 18 24" fill="none" xmlns="http://www.w3.org/2000/svg">
<path fill-rule="evenodd" clip-rule="evenodd" d="M7.5133 15.6509C7.4938 15.719 7.47355 15.7801 7.46079 15.8343C6.60729 19.2881 6.51504 20.0553 5.63453 21.6634C5.2159 22.4242 4.74389 23.1524 4.22226 23.842C4.16301 23.9233 4.11049 24.0185 3.99274 23.9969C3.86149 23.9698 3.85473 23.8474 3.84273 23.746C3.69631 22.6992 3.63485 21.6415 3.65898 20.5841C3.70473 19.1998 3.86899 18.7315 5.59026 11.2464C5.61021 11.1415 5.59652 11.0328 5.55126 10.9367C5.12098 9.81922 5.07467 8.58332 5.42001 7.4349C6.20152 4.87999 8.9998 4.68644 9.49256 6.78997C9.79256 8.09297 8.99307 9.79625 8.38256 12.3202C7.87705 14.3966 10.241 15.8761 12.2706 14.3626C14.1358 12.9643 14.8649 9.60579 14.7269 7.2305C14.4576 2.4869 9.42656 1.46261 6.23452 2.98936C2.57598 4.73986 1.74196 9.4223 3.39723 11.5669C3.60723 11.8386 3.76475 12.0082 3.69725 12.2792C3.59225 12.7065 3.50001 13.1409 3.38226 13.5682C3.36853 13.6388 3.33875 13.705 3.29537 13.7614C3.25199 13.8178 3.19623 13.8627 3.13273 13.8925C3.06922 13.9223 2.99979 13.9361 2.93012 13.9327C2.86044 13.9294 2.79254 13.909 2.732 13.8733C2.13189 13.6221 1.60465 13.2155 1.20122 12.6926C-0.2043 10.8941 -0.604799 7.34508 1.25372 4.33881C3.3095 1.0097 7.13229 -0.336662 10.6288 0.0705745C14.7996 0.559103 17.4336 3.50422 17.9264 6.84263C18.2435 9.65023 17.5287 12.4785 15.9232 14.7682C13.5456 17.8148 9.6898 18.0199 7.91678 16.1456C7.77145 15.9904 7.63666 15.8251 7.5133 15.6509Z" fill="white"/>
</svg>
