<svg width="80" height="80" viewBox="0 0 80 80" fill="none" xmlns="http://www.w3.org/2000/svg">
<path d="M40 80C62.0914 80 80 62.0914 80 40C80 17.9086 62.0914 0 40 0C17.9086 0 0 17.9086 0 40C0 62.0914 17.9086 80 40 80Z" fill="#1F0045"/>
<path d="M39.4613 14.3146C39.6014 14.1726 39.7683 14.0598 39.9523 13.9828C40.1363 13.9059 40.3338 13.8667 40.5333 13.8667C40.7327 13.8667 40.9302 13.9059 41.1143 13.9828C41.2983 14.0598 41.4652 14.1726 41.6053 14.3146L66.752 39.4563C66.894 39.5974 67.0067 39.7651 67.0836 39.95C67.1605 40.1349 67.2001 40.3331 67.2001 40.5334C67.2001 40.7336 67.1605 40.9318 67.0836 41.1167C67.0067 41.3016 66.894 41.4693 66.752 41.6104L41.6053 66.7521C41.4652 66.8941 41.2983 67.0069 41.1143 67.0839C40.9302 67.1608 40.7327 67.2 40.5333 67.2C40.3338 67.2 40.1363 67.1608 39.9523 67.0839C39.7683 67.0069 39.6014 66.8941 39.4613 66.7521L14.3104 41.6104C14.0258 41.3241 13.8661 40.937 13.8661 40.5334C13.8661 40.1297 14.0258 39.7426 14.3104 39.4563L39.4613 14.3146Z" fill="white"/>
<path d="M22.337 23.8505C22.3381 23.4488 22.4983 23.0641 22.7826 22.7802C23.0669 22.4963 23.452 22.3365 23.8538 22.3359H57.2159C57.6171 22.3376 58.0014 22.4976 58.2851 22.7813C58.5688 23.0649 58.7289 23.4493 58.7306 23.8505V57.2161C58.7289 57.6173 58.5688 58.0017 58.2851 58.2854C58.0014 58.5691 57.6171 58.729 57.2159 58.7307H23.8538C23.452 58.7302 23.0669 58.5703 22.7826 58.2865C22.4983 58.0026 22.3381 57.6179 22.337 57.2161V23.8505Z" fill="#1B0142"/>
<path d="M31.4333 46.6026H49.6296M31.4333 34.4641H49.6296H31.4333Z" stroke="white" stroke-width="4" stroke-linecap="round"/>
</svg>
