<svg width="68" height="12" viewBox="0 0 68 12" fill="none" xmlns="http://www.w3.org/2000/svg">
<path opacity="0.35" d="M45.6667 0.833374H62.3333C63.53 0.833374 64.5 1.80342 64.5 3.00004V9.00004C64.5 10.1967 63.53 11.1667 62.3333 11.1667H45.6667C44.47 11.1667 43.5 10.1967 43.5 9.00004V3.00004C43.5 1.80342 44.47 0.833374 45.6667 0.833374Z" stroke="black"/>
<path opacity="0.4" d="M66 4V8C66.8047 7.66122 67.328 6.87313 67.328 6C67.328 5.12687 66.8047 4.33878 66 4" fill="black"/>
<path d="M45 3.43337C45 2.82586 45.4925 2.33337 46.1 2.33337H61.9C62.5075 2.33337 63 2.82586 63 3.43337V8.56671C63 9.17422 62.5075 9.66671 61.9 9.66671H46.1C45.4925 9.66671 45 9.17422 45 8.56671V3.43337Z" fill="black"/>
<path fill-rule="evenodd" clip-rule="evenodd" d="M30.3305 2.60802C32.5463 2.60811 34.6775 3.45955 36.2835 4.98635C36.4044 5.10422 36.5977 5.10274 36.7168 4.98302L37.8728 3.81635C37.9331 3.75563 37.9667 3.67338 37.9662 3.58779C37.9657 3.50221 37.9311 3.42036 37.8701 3.36035C33.655 -0.679198 27.0052 -0.679198 22.7901 3.36035C22.7291 3.42032 22.6944 3.50215 22.6939 3.58773C22.6933 3.67331 22.7269 3.75558 22.7871 3.81635L23.9435 4.98302C24.0625 5.10292 24.2559 5.10441 24.3768 4.98635C25.9829 3.45945 28.1143 2.60801 30.3305 2.60802ZM30.3305 6.40368C31.5479 6.40361 32.722 6.85614 33.6245 7.67335C33.7465 7.78933 33.9388 7.78682 34.0578 7.66768L35.2125 6.50102C35.2733 6.43982 35.307 6.3568 35.3061 6.27054C35.3052 6.18427 35.2698 6.10196 35.2078 6.04202C32.4596 3.48563 28.2037 3.48563 25.4555 6.04202C25.3934 6.10196 25.358 6.18432 25.3571 6.27061C25.3563 6.3569 25.3902 6.43991 25.4511 6.50102L26.6055 7.66768C26.7244 7.78682 26.9167 7.78933 27.0388 7.67335C27.9407 6.85668 29.1138 6.40419 30.3305 6.40368ZM32.6434 8.9575C32.6452 9.04401 32.6112 9.12741 32.5495 9.18802L30.5521 11.2037C30.4936 11.2629 30.4137 11.2963 30.3305 11.2963C30.2472 11.2963 30.1673 11.2629 30.1088 11.2037L28.1111 9.18802C28.0494 9.12737 28.0155 9.04394 28.0173 8.95743C28.0191 8.87092 28.0566 8.789 28.1208 8.73102C29.3964 7.65213 31.2645 7.65213 32.5401 8.73102C32.6043 8.78905 32.6417 8.87099 32.6434 8.9575Z" fill="black"/>
<path fill-rule="evenodd" clip-rule="evenodd" d="M16.667 0.666626H15.667C15.1147 0.666626 14.667 1.11434 14.667 1.66663V10.3333C14.667 10.8856 15.1147 11.3333 15.667 11.3333H16.667C17.2193 11.3333 17.667 10.8856 17.667 10.3333V1.66663C17.667 1.11434 17.2193 0.666626 16.667 0.666626ZM11.0003 2.99996H12.0003C12.5526 2.99996 13.0003 3.44767 13.0003 3.99996V10.3333C13.0003 10.8856 12.5526 11.3333 12.0003 11.3333H11.0003C10.448 11.3333 10.0003 10.8856 10.0003 10.3333V3.99996C10.0003 3.44767 10.448 2.99996 11.0003 2.99996ZM7.33366 5.33329H6.33366C5.78137 5.33329 5.33366 5.78101 5.33366 6.33329V10.3333C5.33366 10.8856 5.78137 11.3333 6.33366 11.3333H7.33366C7.88594 11.3333 8.33366 10.8856 8.33366 10.3333V6.33329C8.33366 5.78101 7.88594 5.33329 7.33366 5.33329ZM2.66699 7.33329H1.66699C1.11471 7.33329 0.666992 7.78101 0.666992 8.33329V10.3333C0.666992 10.8856 1.11471 11.3333 1.66699 11.3333H2.66699C3.21928 11.3333 3.66699 10.8856 3.66699 10.3333V8.33329C3.66699 7.78101 3.21928 7.33329 2.66699 7.33329Z" fill="black"/>
</svg>
